<svg xmlns="http://www.w3.org/2000/svg" width="39" height="48" fill="none" xmlns:v="https://vecta.io/nano"><path fill-rule="evenodd" d="M24.8 0H4.011C1.804.003.016 1.791.013 3.998v39.979c.003 2.207 1.791 3.995 3.998 3.998H24v-1.43a18.18 18.18 0 0 1 3.064-10.119.8.8 0 0 0-.1-1.009l-5.597-5.597c-.517-.518-.791-1.23-.755-1.961s.38-1.413.946-1.877c1.09-.833 2.631-.714 3.58.276l7.893 7.893 1.131-1.131-5.363-5.364V3.998C28.795 1.791 27.006.003 24.8 0zm2.399 26.055l-.931-.931c-1.534-1.567-4.001-1.73-5.728-.379-.913.751-1.468 1.853-1.526 3.035s.386 2.332 1.223 3.169l5.141 5.142a19.77 19.77 0 0 0-2.971 10.285H4.011a2.4 2.4 0 0 1-2.399-2.399v-2.399h19.989v-1.599H1.612V6.397h25.586v19.658zM1.612 4.797h25.586v-.8A2.4 2.4 0 0 0 24.8 1.599H4.011a2.4 2.4 0 0 0-2.399 2.399v.8zm29.543 13.803l-1.078 1.179 4.904 4.495a5.61 5.61 0 0 1 1.813 4.127v19.574h1.599V28.401c-.002-2.017-.848-3.94-2.333-5.305l-4.904-4.495zM4.81 14.392h3.198a1.6 1.6 0 0 0 1.599-1.599V9.595a1.6 1.6 0 0 0-1.599-1.599H4.81a1.6 1.6 0 0 0-1.599 1.599v3.198a1.6 1.6 0 0 0 1.599 1.599zm0-4.797h3.198v3.198H4.81V9.595zm11.194 4.797h-3.198a1.6 1.6 0 0 1-1.599-1.599V9.595a1.6 1.6 0 0 1 1.599-1.599h3.198a1.6 1.6 0 0 1 1.599 1.599v3.198a1.6 1.6 0 0 1-1.599 1.599zm0-4.797h-3.198v3.198h3.198V9.595zm4.797 4.797H24a1.6 1.6 0 0 0 1.599-1.599V9.595A1.6 1.6 0 0 0 24 7.996h-3.198a1.6 1.6 0 0 0-1.599 1.599v3.198a1.6 1.6 0 0 0 1.599 1.599zm0-4.797H24v3.198h-3.198V9.595zM8.009 22.388H4.81a1.6 1.6 0 0 1-1.599-1.599v-3.198a1.6 1.6 0 0 1 1.599-1.599h3.198a1.6 1.6 0 0 1 1.599 1.599v3.198a1.6 1.6 0 0 1-1.599 1.599zm0-4.798H4.81v3.198h3.198v-3.198zM4.81 30.384h3.198a1.6 1.6 0 0 0 1.599-1.599v-3.198a1.6 1.6 0 0 0-1.599-1.599H4.81a1.6 1.6 0 0 0-1.599 1.599v3.198a1.6 1.6 0 0 0 1.599 1.599zm0-4.797h3.198v3.198H4.81v-3.198zm11.194-3.198h-3.198a1.6 1.6 0 0 1-1.599-1.599v-3.198a1.6 1.6 0 0 1 1.599-1.599h3.198a1.6 1.6 0 0 1 1.599 1.599v3.198a1.6 1.6 0 0 1-1.599 1.599zm0-4.798h-3.198v3.198h3.198v-3.198zm4.797 4.798H24a1.6 1.6 0 0 0 1.599-1.599v-3.198A1.6 1.6 0 0 0 24 15.992h-3.198a1.6 1.6 0 0 0-1.599 1.599v3.198a1.6 1.6 0 0 0 1.599 1.599zm0-4.798H24v3.198h-3.198v-3.198zm-4.797 12.793h-3.198a1.6 1.6 0 0 1-1.599-1.599v-3.198a1.6 1.6 0 0 1 1.599-1.599h3.198a1.6 1.6 0 0 1 1.599 1.599v3.198a1.6 1.6 0 0 1-1.599 1.599zm0-4.797h-3.198v3.198h3.198v-3.198zM4.81 38.38h3.198a1.6 1.6 0 0 0 1.599-1.599v-3.198a1.6 1.6 0 0 0-1.599-1.599H4.81a1.6 1.6 0 0 0-1.599 1.599v3.198A1.6 1.6 0 0 0 4.81 38.38zm0-4.797h3.198v3.198H4.81v-3.198zm11.194 4.797h-3.198a1.6 1.6 0 0 1-1.599-1.599v-3.198a1.6 1.6 0 0 1 1.599-1.599h3.198a1.6 1.6 0 0 1 1.599 1.599v3.198a1.6 1.6 0 0 1-1.599 1.599zm0-4.797h-3.198v3.198h3.198v-3.198zm-.8 9.595h-1.599v1.599h1.599v-1.599z" fill="#495567"/></svg>