<svg xmlns="http://www.w3.org/2000/svg" width="43" height="32" fill="none" xmlns:v="https://vecta.io/nano"><path d="M18.07 30.301c-.218 0-.431.089-.585.242s-.242.367-.242.585.088.431.242.585.367.242.585.242.43-.088.585-.242a.83.83 0 0 0 .242-.585c0-.217-.088-.431-.242-.585s-.367-.242-.585-.242z" fill="#000"/><path fill-rule="evenodd" d="M34.539 16.419l-1.927-8.706a2.06 2.06 0 0 0 1.301-.718c.381.238.83.376 1.311.376h1.654c.457 0 .827-.37.827-.827V3.237c0-.457-.37-.827-.827-.827h-1.654a2.47 2.47 0 0 0-1.345.398 2.06 2.06 0 0 0-1.546-.699h-4.881a2.07 2.07 0 0 0-1.926 1.323h-1.96c-1.185 0-2.15.964-2.15 2.15s.965 2.15 2.15 2.15h4.256v1.666c0 .457.37.827.827.827s.827-.37.827-.827V7.732h1.447l2.076 9.378-3.928 6.997a2.43 2.43 0 0 1-2.113 1.235h-9.806a6.96 6.96 0 0 0-6.897-6.122 6.88 6.88 0 0 0-4.287 1.48l-.005.004c-1.469 1.155-2.392 2.813-2.607 4.637h-1.7c.108-5.945 4.977-10.747 10.946-10.747h5.866a.84.84 0 0 1 .84.84v7.426c0 .457.37.827.827.827h4.4c1.795 0 3.449-.976 4.317-2.547a4.94 4.94 0 0 0 .615-2.379l.004-2.747c.001-.457-.369-.828-.826-.828h-.001a.83.83 0 0 0-.827.826l-.004 2.748a3.28 3.28 0 0 1-3.278 3.275h-3.573v-6.599a2.48 2.48 0 0 0-.294-1.172 2.48 2.48 0 0 0 1.244-2.149c0-1.368-1.113-2.481-2.481-2.481h-3.018a2.47 2.47 0 0 0-.827.142V2.522c0-1.368-1.113-2.481-2.481-2.481H7.771C3.904.041.689 2.88.098 6.583a.82.82 0 0 0-.038.249 8.31 8.31 0 0 0-.059.98v4.301c0 1.242.918 2.274 2.11 2.453l1.831 1.831A12.57 12.57 0 0 0 0 25.544v.625c0 .457.37.827.827.827h4.647c-.011.053-.016.109-.016.165A4.77 4.77 0 0 0 6.633 30.3H.827c-.457 0-.827.37-.827.827s.37.827.827.827h9.331l.028.001.068.002c2.644 0 4.796-2.151 4.796-4.796a.84.84 0 0 0-.016-.165h11.924c1.302 0 2.519-.624 3.281-1.656h1.047a4.79 4.79 0 0 0-.36 1.822 4.77 4.77 0 0 0 1.175 3.139H21.377c-.457 0-.827.37-.827.827s.37.827.827.827h14.248l.096.003c2.644 0 4.796-2.151 4.796-4.796a4.79 4.79 0 0 0-.361-1.822h1.353c.457 0 .827-.37.827-.827 0-4.365-3.471-7.934-7.797-8.094zm-18.126-5.132h3.018a.83.83 0 0 1 .827.827.83.83 0 0 1-.827.827h-3.018a.83.83 0 0 1-.827-.827.83.83 0 0 1 .827-.827zM1.656 7.711h0l-.002.102v4.301a.83.83 0 0 0 .827.827h.001 10.624a.83.83 0 0 0 .827-.827V2.522a.83.83 0 0 0-.827-.827H7.771a6.13 6.13 0 0 0-5.845 4.311h8.779c.457 0 .827.37.827.827s-.37.827-.827.827H1.658l-.002.051zm2.821 6.884h1.892a12.59 12.59 0 0 0-1.15.742l-.743-.742zm5.808 15.708c1.718-.017 3.11-1.419 3.11-3.141a.85.85 0 0 1 .016-.165H7.095c.011.053.016.109.016.165 0 1.701 1.358 3.089 3.047 3.139h.095l.032.002zm-5.263-4.96a5.26 5.26 0 0 1 1.96-3.337 5.25 5.25 0 0 1 3.27-1.13c2.638 0 4.832 1.94 5.23 4.468H5.023zm31.03-21.279h-.827a.83.83 0 0 0-.827.827.83.83 0 0 0 .827.827h.827V4.064zM23.07 5.583c0-.274.223-.496.496-.496h1.822v.581a2.06 2.06 0 0 0 .041.411h-1.863c-.274 0-.496-.223-.496-.496zm4.382.496h1.197 3.684a.41.41 0 0 0 .411-.411V4.174a.41.41 0 0 0-.411-.411h-4.881a.41.41 0 0 0-.411.411v1.494a.41.41 0 0 0 .411.411zm11.411 21.083c0 1.722-1.392 3.124-3.11 3.141l-.032-.002h-.095c-1.689-.051-3.047-1.439-3.047-3.14a3.14 3.14 0 0 1 .582-1.822h5.12a3.14 3.14 0 0 1 .582 1.822zm-4.507-9.091l-3.153 5.616h9.426c-.402-3.126-3.053-5.557-6.273-5.616z" fill="#495567"/><path d="M28.649 13.533c.457 0 .827-.37.827-.827s-.37-.827-.827-.827h-.003c-.457 0-.826.37-.826.827a.83.83 0 0 0 .829.827z" fill="#000"/></svg>