<svg xmlns="http://www.w3.org/2000/svg" width="40" height="40" fill="none" xmlns:v="https://vecta.io/nano"><path fill-rule="evenodd" d="M36.171 18H38a.67.67 0 0 0 .667-.667V12c0-.368-.298-.667-.667-.667h-6.255l-1.079-2.157V6.667c0-.368-.298-.667-.667-.667h-4c-.368 0-.667.298-.667.667v2.667c0 .368.298.667.667.667h3.588l1.079 2.157V16a2 2 0 1 0-4 0v-1.333c0-.368-.298-.667-.667-.667h-5.251l-2.082-.521V2.667C18.667 1.194 17.473 0 16 0h-2.667a2.67 2.67 0 0 0-2.667 2.667V10H7.333a2 2 0 0 0-2 2v2H.667c-.27 0-.513.162-.616.412s-.046.536.144.726l1.529 1.529-1.529 1.529c-.191.191-.248.477-.144.727s.346.412.616.412h6.667a2 2 0 0 0 2-2v-2h1.333V22h-2c-2.318.003-4.282 1.706-4.613 4H2a.67.67 0 0 0-.667.667v2.667c0 .368.298.667.667.667h2v1.333H.667c-.368 0-.667.298-.667.667v2.667c0 .368.298.667.667.667H8A4.67 4.67 0 0 0 12.667 40a4.67 4.67 0 0 0 4.667-4.667h12A4.67 4.67 0 0 0 34 40a4.67 4.67 0 0 0 4.667-4.667h.667c.203 0 .395-.092.522-.252s.174-.367.128-.565L36.171 18zm-9.505-2a2 2 0 1 0 4 0v14h-2v-.667a2 2 0 0 0-2-2V20c0-.368-.298-.667-.667-.667h-7.333V17.52l1.838.459a.68.68 0 0 0 .162.02H26a.67.67 0 0 0 .667-.667V16zm2.667-7.333h-2.667V7.333h2.667v1.333zM4 34v-1.333H1.333V34H4zm0-5.333H2.667v-1.333H4v1.333zm33.333-16H36v4h1.333v-4zm-5.333 0h2.667v4H32v-4zm-4.667 16.667c0-.368-.298-.667-.667-.667H24V30h3.333v-.667zm-6.829-14.02a.68.68 0 0 0 .162.02h4.667v1.333h-4.585L16 15.479v-1.292l4.505 1.126zm-7.171-13.98c-.736 0-1.333.597-1.333 1.333v2.667h2V4a.67.67 0 0 1 .667-.667h2.667v-.667c0-.736-.597-1.333-1.333-1.333h-2.667zM12 6.667h2.667c.368 0 .667-.298.667-.667V4.667h2v1.504L12 7.771V6.667zm5.333 4V7.563L12 9.163v1.504h5.333zm0 1.333v1.146l-1.838-.459c-.199-.05-.41-.005-.572.121s-.256.32-.256.525V16c0 .306.208.572.505.647l2.162.541v2.146H12V12h5.333zm8 15.333v-6.667H12V22h11.333a.67.67 0 0 1 .667.667v4.667h1.333zM8 17.333c0 .368-.298.667-.667.667H2.276l.862-.862a.67.67 0 0 0 0-.943l-.862-.862H8v2zM6.667 12v2h4v-2.667H7.333a.67.67 0 0 0-.667.667zm6 26.667a3.34 3.34 0 0 1-3.333-3.333h1.333a2 2 0 1 0 4 0H16a3.34 3.34 0 0 1-3.333 3.333zm0-2.667c.368 0 .667-.298.667-.667H12a.67.67 0 0 0 .667.667zm4.667-2H8v-6.667c0-.368.298-.667.667-.667h8c.368 0 .667.298.667.667V34zm1.333 0H20v-7.333a3.34 3.34 0 0 0-3.333-3.333h-8a3.34 3.34 0 0 0-3.333 3.333V34h1.333v-6.667a2 2 0 0 1 2-2h8a2 2 0 0 1 2 2V34zm1.26-10.667h2.74V30h-1.333v-3.333a4.65 4.65 0 0 0-1.407-3.333zM34 38.667a3.34 3.34 0 0 1-3.333-3.333H32a2 2 0 1 0 4 0h1.333A3.34 3.34 0 0 1 34 38.667zM34 36c.368 0 .667-.298.667-.667h-1.333c0 .368.298.667.667.667zm-2-2v-4.667h1.333V28H32V18h2.8l3.692 16H32zm-10.667 0h9.333v-2.667h-9.333V34zM36 28h-1.333v1.333H36V28zM9.333 28h1.333v1.333H9.333V28zm4 0H12v1.333h1.333V28zm1.333 0H16v1.333h-1.333V28zm14-12.667a.67.67 0 0 1 .667.667c0 .368-.298.667-.667.667S28 16.368 28 16a.67.67 0 0 1 .667-.667zM0 4.667h8.667V6H0V4.667zm9.333 2.667h-8v1.333h8V7.333z" fill="#495567"/></svg>